<?xml version="1.0" encoding="iso-8859-1"?>
<!-- Generator: Adobe Illustrator 18.0.0, SVG Export Plug-In . SVG Version: 6.00 Build 0)  -->
<!DOCTYPE svg PUBLIC "-//W3C//DTD SVG 1.1//EN" "http://www.w3.org/Graphics/SVG/1.1/DTD/svg11.dtd">
<svg version="1.1" id="&#x421;&#x43B;&#x43E;&#x439;_1"
	 xmlns="http://www.w3.org/2000/svg" xmlns:xlink="http://www.w3.org/1999/xlink" x="0px" y="0px" viewBox="0 0 30.238 30.238"
	 style="enable-background:new 0 0 30.238 30.238;" xml:space="preserve">
<circle style="fill:#222A32;" cx="15.119" cy="15.119" r="15.119"/>
<g>
	<path style="fill:#7AC943;" d="M19.016,20.964c0,0.359-0.29,0.649-0.649,0.649h-6.494c-0.359,0-0.649-0.29-0.649-0.649
		c0-0.359,0.29-0.649,0.649-0.649h6.494C18.725,20.315,19.016,20.605,19.016,20.964z M18.366,22.263h-6.494
		c-0.359,0-0.649,0.29-0.649,0.649s0.29,0.649,0.649,0.649h6.494c0.359,0,0.649-0.29,0.649-0.649S18.725,22.263,18.366,22.263z
		 M13.82,25.51h2.598c0.718,0,1.299-0.581,1.299-1.299h-5.196C12.521,24.929,13.102,25.51,13.82,25.51z M21.614,11.223
		c0,3.531-2.128,3.942-2.528,7.793c0,0.359-0.29,0.649-0.649,0.649h-6.634c-0.359,0-0.649-0.29-0.649-0.649h-0.001
		c-0.398-3.851-2.527-4.262-2.527-7.793c0-3.587,2.907-6.494,6.494-6.494S21.614,7.635,21.614,11.223z"/>
</g>
</svg>
