<svg id="Слой_1" data-name="Слой 1" xmlns="http://www.w3.org/2000/svg" viewBox="0 0 17.05 17.05">
  <title>icon-histroy</title>
  <g id="header_-_member_2" data-name="header - member 2">
    <g id="_Группа_" data-name="&lt;Группа&gt;">
      <g id="_Группа_2" data-name="&lt;Группа&gt;">
        <path id="_Составной_контур_" data-name="&lt;Составной контур&gt;" d="M541,544.94a8.53,8.53,0,1,0,8.53,8.53A8.54,8.54,0,0,0,541,544.94Zm0,15.24a6.71,6.71,0,1,1,6.71-6.71A6.72,6.72,0,0,1,541,560.18Z" transform="translate(-532.44 -544.94)" fill="#5b656c"/>
        <path id="_Контур_" data-name="&lt;Контур&gt;" d="M545.41,553.06h-3.52v-4.47a0.62,0.62,0,1,0-1.22,0v5.31c0,0.39-.18.38,0.21,0.38h4.53A0.62,0.62,0,1,0,545.41,553.06Z" transform="translate(-532.44 -544.94)" fill="#5b656c"/>
      </g>
    </g>
  </g>
</svg>
