<svg id="Слой_1" data-name="Слой 1" xmlns="http://www.w3.org/2000/svg" viewBox="0 0 15 15">
  <title>icon-movie</title>
  <g id="header_-_member_2" data-name="header - member 2">
    <path d="M494.32,983.63h13.94a0.52,0.52,0,0,0,.53-0.53V969.16a0.52,0.52,0,0,0-.53-0.53H494.32a0.52,0.52,0,0,0-.53.53V983.1a0.53,0.53,0,0,0,.53.53h0ZM506,969.69h1.76v2.43H506v-2.43Zm0,3.49h1.76v2.43H506v-2.43h0Zm0,3.49h1.77v2.43H506v-2.43h0Zm0,3.49h1.76v2.43H506v-2.43h0Zm-8.31-10.47h7.25v5.92h-7.25v-5.92Zm0,7h7.25v5.92h-7.25v-5.92h0Zm-2.82-7h1.76v2.43h-1.76v-2.43Zm0,3.49h1.76v2.43h-1.76v-2.43Zm0,3.49h1.76v2.43h-1.76v-2.43h0Zm0,3.49h1.76v2.43h-1.76v-2.43h0Z" transform="translate(-493.79 -968.63)" fill="#37474f"/>
  </g>
</svg>
