<svg id="Слой_1" data-name="Слой 1" xmlns="http://www.w3.org/2000/svg" viewBox="0 0 14.79 14.79">
  <title>icon-sad</title>
  <path d="M1711.17,1929.08a7.4,7.4,0,1,0,7.4,7.4A7.4,7.4,0,0,0,1711.17,1929.08Zm2.73,4.93a1.06,1.06,0,1,1-1.06,1.06A1.06,1.06,0,0,1,1713.9,1934Zm-5.46,0a1.06,1.06,0,1,1-1.06,1.06A1.06,1.06,0,0,1,1708.44,1934Zm6.76,6.06a0.58,0.58,0,0,1-.57.26h-6.92a0.58,0.58,0,0,1-.57-0.26,0.57,0.57,0,0,1,0-.63,4.88,4.88,0,0,1,8,0A0.59,0.59,0,0,1,1715.21,1940.07Z" transform="translate(-1703.78 -1929.08)" fill="#5b656c"/>
</svg>
