<svg id="Слой_1" data-name="Слой 1" xmlns="http://www.w3.org/2000/svg" viewBox="0 0 21.31 21.31">
  <title>icon-settings</title>
  <g id="header_-_member_2" data-name="header - member 2">
    <g id="header-phone">
      <g id="Settings">
        <path d="M894.12,556.89a0.69,0.69,0,0,0-.68-0.52,2.35,2.35,0,0,1-1.61-4.09,0.59,0.59,0,0,0,.06-0.8,10.54,10.54,0,0,0-1.69-1.7,0.59,0.59,0,0,0-.81.07,2.46,2.46,0,0,1-2.66.6,2.37,2.37,0,0,1-1.44-2.31,0.59,0.59,0,0,0-.52-0.62,10.64,10.64,0,0,0-2.4,0,0.59,0.59,0,0,0-.53.61,2.37,2.37,0,0,1-1.46,2.27,2.46,2.46,0,0,1-2.64-.6,0.59,0.59,0,0,0-.8-0.07,10.58,10.58,0,0,0-1.72,1.7,0.59,0.59,0,0,0,.06.81,2.36,2.36,0,0,1,.6,2.66,2.46,2.46,0,0,1-2.32,1.44,0.58,0.58,0,0,0-.62.52,10.67,10.67,0,0,0,0,2.42,0.7,0.7,0,0,0,.7.52,2.34,2.34,0,0,1,2.19,1.46,2.37,2.37,0,0,1-.6,2.63,0.59,0.59,0,0,0-.06.8,10.58,10.58,0,0,0,1.69,1.71,0.59,0.59,0,0,0,.81-0.06,2.45,2.45,0,0,1,2.66-.6,2.36,2.36,0,0,1,1.44,2.31,0.59,0.59,0,0,0,.52.62,10.6,10.6,0,0,0,2.4,0,0.59,0.59,0,0,0,.53-0.61,2.37,2.37,0,0,1,1.46-2.27,2.46,2.46,0,0,1,2.64.6,0.6,0.6,0,0,0,.8.07,10.61,10.61,0,0,0,1.72-1.7,0.59,0.59,0,0,0-.06-0.81,2.36,2.36,0,0,1-.6-2.66,2.39,2.39,0,0,1,2.18-1.44h0.13a0.59,0.59,0,0,0,.62-0.52A10.66,10.66,0,0,0,894.12,556.89Zm-10.57,4.76a3.55,3.55,0,1,1,3.55-3.55A3.56,3.56,0,0,1,883.55,561.65Z" transform="translate(-872.88 -547.42)" fill="#8f9da2"/>
      </g>
    </g>
  </g>
</svg>
