<svg id="Слой_1" data-name="Слой 1" xmlns="http://www.w3.org/2000/svg" viewBox="0 0 26.24 21.34">
  <title>icon-logout</title>
  <g id="header_-_member_2" data-name="header - member 2">
    <g>
      <path d="M886.5,602.32a0.59,0.59,0,0,1-.58-0.58v-3.07a0.59,0.59,0,0,1,.58-0.58h5.62V592a2.4,2.4,0,0,0-2.42-2.42H877.21a2.4,2.4,0,0,0-2.42,2.42v16.49a2.4,2.4,0,0,0,2.42,2.42H889.7a2.4,2.4,0,0,0,2.42-2.42v-6.13H886.5Z" transform="translate(-874.79 -589.53)" fill="#8f9da2"/>
      <g id="Layer_5" data-name="Layer 5">
        <path d="M900.84,599.82l-6.24-4.35c-0.24-.21-0.44-0.12-0.44.2v1.82a0.59,0.59,0,0,1-.58.58H892.7a0.59,0.59,0,0,0-.58.58v3.07a0.59,0.59,0,0,0,.58.58h0.87a0.59,0.59,0,0,1,.58.58v1.82c0,0.32.2,0.41,0.44,0.21l6.24-4.35A0.48,0.48,0,0,0,900.84,599.82Z" transform="translate(-874.79 -589.53)" fill="#8f9da2"/>
      </g>
    </g>
  </g>
</svg>
