<svg id="Слой_1" data-name="Слой 1" xmlns="http://www.w3.org/2000/svg" viewBox="0 0 16 13.35">
  <title>icon-tvshow</title>
  <g id="header_-_member_2" data-name="header - member 2">
    <path d="M508.16,1024.58v0H493.89v0a0.94,0.94,0,0,0-.86.84v9.38a0.92,0.92,0,0,0,.13.47,0.87,0.87,0,0,0,.81.48h5.15v1.3h-1a0.43,0.43,0,0,0,0,.86h5.77a0.43,0.43,0,1,0,0-.86h-1v-1.3h5.15a0.87,0.87,0,0,0,.81-0.48,1,1,0,0,0,.13-0.47v-9.38A1,1,0,0,0,508.16,1024.58Zm0,0.92v9.3a0.07,0.07,0,0,1-.08.08H494a0.07,0.07,0,0,1-.08-0.08v-9.38h14.27v0.08h0Z" transform="translate(-493.03 -1024.55)" fill="#37474f"/>
  </g>
</svg>
