<svg id="Слой_1" data-name="Слой 1" xmlns="http://www.w3.org/2000/svg" viewBox="0 0 16.95 18.22">
  <title>icon-dictionary</title>
  <g id="header_-_member_2" data-name="header - member 2">
    <path d="M1115.43,1302.93h-2v4.94a0.39,0.39,0,0,1-.29.38h-0.1a0.39,0.39,0,0,1-.34-0.2l-1.12-2-1.12,2a0.39,0.39,0,0,1-.73-0.19v-4.94h-7.68a0.79,0.79,0,0,0-.79.79v1.37h-0.22a1.83,1.83,0,1,0,0,3.66h0.22v6.19h-0.22a1.83,1.83,0,1,0,0,3.66h0.22v1.77a0.79,0.79,0,0,0,.79.79h13.33a0.79,0.79,0,0,0,.79-0.79v-16.65A0.79,0.79,0,0,0,1115.43,1302.93Zm-12.59,14.71h-1.62a0.85,0.85,0,0,1,0-1.69h1.62A0.85,0.85,0,0,1,1102.84,1317.64Zm0-9.84h-1.62a0.85,0.85,0,0,1,0-1.69h1.62A0.85,0.85,0,0,1,1102.84,1307.8Z" transform="translate(-1099.27 -1302.93)" />
  </g>
</svg>
