<svg id="Слой_1" data-name="Слой 1" xmlns="http://www.w3.org/2000/svg" viewBox="0 0 19.89 19.74">
  <title>view-list</title>
  <g>
    <path d="M2309.07,1095.53h-18.65a0.62,0.62,0,0,0-.62.62v3.34a0.62,0.62,0,0,0,.62.62h18.65a0.62,0.62,0,0,0,.62-0.62v-3.34A0.62,0.62,0,0,0,2309.07,1095.53Z" transform="translate(-2289.8 -1095.53)" fill="#eceff0"/>
    <path d="M2309.07,1103h-18.65a0.62,0.62,0,0,0-.62.62V1107a0.62,0.62,0,0,0,.62.62h18.65a0.62,0.62,0,0,0,.62-0.62v-3.34A0.62,0.62,0,0,0,2309.07,1103Z" transform="translate(-2289.8 -1095.53)" fill="#eceff0"/>
    <path d="M2309.07,1110.69h-18.65a0.62,0.62,0,0,0-.62.62v3.34a0.62,0.62,0,0,0,.62.62h18.65a0.62,0.62,0,0,0,.62-0.62v-3.34A0.62,0.62,0,0,0,2309.07,1110.69Z" transform="translate(-2289.8 -1095.53)" fill="#eceff0"/>
  </g>
</svg>
