<svg id="Слой_1" data-name="Слой 1" xmlns="http://www.w3.org/2000/svg" viewBox="0 0 20 19.74">
  <title>view-table</title>
  <g>
    <path d="M2259.74,1095.53h-3.34a0.62,0.62,0,0,0-.62.62v3.34a0.62,0.62,0,0,0,.62.62h3.34a0.62,0.62,0,0,0,.62-0.62v-3.34A0.62,0.62,0,0,0,2259.74,1095.53Z" transform="translate(-2255.78 -1095.53)" fill="#383b3f"/>
    <path d="M2267.39,1095.53H2264a0.62,0.62,0,0,0-.62.62v3.34a0.62,0.62,0,0,0,.62.62h3.34a0.62,0.62,0,0,0,.62-0.62v-3.34A0.62,0.62,0,0,0,2267.39,1095.53Z" transform="translate(-2255.78 -1095.53)" fill="#383b3f"/>
    <path d="M2275.16,1095.53h-3.34a0.62,0.62,0,0,0-.62.62v3.34a0.62,0.62,0,0,0,.62.62h3.34a0.62,0.62,0,0,0,.62-0.62v-3.34A0.62,0.62,0,0,0,2275.16,1095.53Z" transform="translate(-2255.78 -1095.53)" fill="#383b3f"/>
    <path d="M2259.74,1103h-3.34a0.62,0.62,0,0,0-.62.62V1107a0.62,0.62,0,0,0,.62.62h3.34a0.62,0.62,0,0,0,.62-0.62v-3.34A0.62,0.62,0,0,0,2259.74,1103Z" transform="translate(-2255.78 -1095.53)" fill="#383b3f"/>
    <path d="M2267.39,1103H2264a0.62,0.62,0,0,0-.62.62V1107a0.62,0.62,0,0,0,.62.62h3.34a0.62,0.62,0,0,0,.62-0.62v-3.34A0.62,0.62,0,0,0,2267.39,1103Z" transform="translate(-2255.78 -1095.53)" fill="#383b3f"/>
    <path d="M2275.16,1103h-3.34a0.62,0.62,0,0,0-.62.62V1107a0.62,0.62,0,0,0,.62.62h3.34a0.62,0.62,0,0,0,.62-0.62v-3.34A0.62,0.62,0,0,0,2275.16,1103Z" transform="translate(-2255.78 -1095.53)" fill="#383b3f"/>
    <path d="M2259.74,1110.69h-3.34a0.62,0.62,0,0,0-.62.62v3.34a0.62,0.62,0,0,0,.62.62h3.34a0.62,0.62,0,0,0,.62-0.62v-3.34A0.62,0.62,0,0,0,2259.74,1110.69Z" transform="translate(-2255.78 -1095.53)" fill="#383b3f"/>
    <path d="M2267.39,1110.69H2264a0.62,0.62,0,0,0-.62.62v3.34a0.62,0.62,0,0,0,.62.62h3.34a0.62,0.62,0,0,0,.62-0.62v-3.34A0.62,0.62,0,0,0,2267.39,1110.69Z" transform="translate(-2255.78 -1095.53)" fill="#383b3f"/>
    <path d="M2275.16,1110.69h-3.34a0.62,0.62,0,0,0-.62.62v3.34a0.62,0.62,0,0,0,.62.62h3.34a0.62,0.62,0,0,0,.62-0.62v-3.34A0.62,0.62,0,0,0,2275.16,1110.69Z" transform="translate(-2255.78 -1095.53)" fill="#383b3f"/>
  </g>
</svg>
