<svg id="Слой_1" data-name="Слой 1" xmlns="http://www.w3.org/2000/svg" viewBox="0 0 18 23.14">
  <title>icon-trashbin</title>
  <g id="header_-_member_2" data-name="header - member 2">
    <g id="openword">
      <g>
        <g id="delete">
          <path d="M2305.46,832.3a2.58,2.58,0,0,0,2.57,2.57h10.29a2.58,2.58,0,0,0,2.57-2.57V816.87h-15.43V832.3ZM2322.18,813h-4.5l-1.29-1.29H2310l-1.29,1.29h-4.5v2.57h18V813Z" transform="translate(-2304.18 -811.73)" fill="#919fa4"/>
        </g>
        <g id="_Группа_" data-name="&lt;Группа&gt;">
          <g id="cross">
            <g id="_Группа_2" data-name="&lt;Группа&gt;">
              <polygon id="_Контур_" data-name="&lt;Контур&gt;" points="5.16 9.32 4.66 9.82 8.5 13.67 4.66 17.52 5.16 18.02 9 14.17 12.84 18.02 13.34 17.52 9.5 13.67 13.34 9.82 12.84 9.32 9 13.16 5.16 9.32" fill="#fff"/>
            </g>
          </g>
        </g>
      </g>
    </g>
  </g>
</svg>
