<svg id="Слой_1" data-name="Слой 1" xmlns="http://www.w3.org/2000/svg" viewBox="0 0 14.27 14.27">
  <title>icon-question</title>
  <g id="header_-_member_2" data-name="header - member 2">
    <path d="M843.13,1604.24a1.57,1.57,0,0,0-1.15-.47H831a1.61,1.61,0,0,0-1.62,1.62v11A1.61,1.61,0,0,0,831,1618h11a1.61,1.61,0,0,0,1.62-1.62v-11A1.57,1.57,0,0,0,843.13,1604.24Zm-5.82,12.26a1.16,1.16,0,1,1,.34-0.82A1.12,1.12,0,0,1,837.31,1616.5Zm2.34-7.14a6.47,6.47,0,0,1-1.26,1.41,6,6,0,0,0-.76.76,1.26,1.26,0,0,0-.23.5,4.66,4.66,0,0,0-.1,1v0a0.84,0.84,0,0,1-.29.65,0.75,0.75,0,0,1-.58.18,1,1,0,0,1-.57-0.24,0.8,0.8,0,0,1-.24-0.58v-0.39a3.7,3.7,0,0,1,.23-1.35,3.11,3.11,0,0,1,.52-0.88,9.59,9.59,0,0,1,.92-0.89,3.53,3.53,0,0,0,.78-0.84,1.19,1.19,0,0,0,.16-0.62,1.49,1.49,0,0,0-.49-1.09,1.66,1.66,0,0,0-1.22-.48,1.59,1.59,0,0,0-1.15.44,2.42,2.42,0,0,0-.63,1.41,1,1,0,0,1-.35.66,0.89,0.89,0,0,1-.67.22,0.74,0.74,0,0,1-.6-0.31,1,1,0,0,1-.13-0.81,3.27,3.27,0,0,1,3.52-3.1,3.64,3.64,0,0,1,2.53.86,2.77,2.77,0,0,1,1,2.12A2.74,2.74,0,0,1,839.64,1609.36Z" transform="translate(-829.33 -1603.77)"/>
  </g>
</svg>
