<svg id="Слой_1" data-name="Слой 1" xmlns="http://www.w3.org/2000/svg" viewBox="0 0 12.99 20.78">
  <title>icon-bulb</title>
  <path d="M463,451.76a0.65,0.65,0,0,1-.65.65h-6.49a0.65,0.65,0,0,1,0-1.3h6.49A0.65,0.65,0,0,1,463,451.76Zm-0.65,1.3h-6.49a0.65,0.65,0,1,0,0,1.3h6.49A0.65,0.65,0,0,0,462.37,453.06Zm-4.55,3.25h2.6a1.3,1.3,0,0,0,1.3-1.3h-5.2A1.3,1.3,0,0,0,457.82,456.31ZM465.61,442c0,3.53-2.13,3.94-2.53,7.79a0.65,0.65,0,0,1-.65.65H455.8a0.65,0.65,0,0,1-.65-0.65h0c-0.4-3.85-2.53-4.26-2.53-7.79A6.49,6.49,0,0,1,465.61,442Z" transform="translate(-452.62 -435.52)"/>
</svg>
