<svg id="Слой_1" data-name="Слой 1" xmlns="http://www.w3.org/2000/svg" viewBox="0 0 20.97 20.02">
  <title>icon-star</title>
  <g id="header_-_member_2" data-name="header - member 2">
    <g id="header-phone">
      <path d="M491.81,543.72a0.81,0.81,0,0,1,1.46,0l2.61,5.29a0.81,0.81,0,0,0,.61.44l5.84,0.85a0.81,0.81,0,0,1,.45,1.38l-4.22,4.12a0.81,0.81,0,0,0-.23.72l1,5.82a0.81,0.81,0,0,1-1.18.86l-5.22-2.75a0.81,0.81,0,0,0-.76,0l-5.22,2.75a0.81,0.81,0,0,1-1.18-.86l1-5.82a0.81,0.81,0,0,0-.23-0.72l-4.22-4.12a0.81,0.81,0,0,1,.45-1.38l5.84-.85a0.81,0.81,0,0,0,.61-0.44Z" transform="translate(-482.05 -543.27)" fill="#5b656c"/>
    </g>
  </g>
</svg>
