<svg id="Слой_1" data-name="Слой 1" xmlns="http://www.w3.org/2000/svg" viewBox="0 0 12.75 16.26">
  <title>icon-bell</title>
  <g id="header_-_member_2" data-name="header - member 2">
    <path id="_Контур_" data-name="&lt;Контур&gt;" d="M1060.62,1617l-0.83-1.14a1.84,1.84,0,0,1-.28-1.44v-3.57a4.91,4.91,0,0,0-3.78-4.61s-0.09-.08-0.09-0.12a1.06,1.06,0,0,0-1.07-1,1,1,0,0,0-1,1s-0.2.08-.2,0.12a4.76,4.76,0,0,0-3.78,4.46v3.73a1.89,1.89,0,0,1-.4,1.44l-1,1.14a1,1,0,0,0-.25.72l0-.08a1.06,1.06,0,0,0,1.13,1h3.86v0.67c0,1.12.54,2,1.66,2s1.66-.91,1.66-2v-0.67H1060c0.61,0,.6-0.41.6-1V1617Z" transform="translate(-1047.86 -1605.1)" fill="#5b656c"/>
  </g>
</svg>
