<svg id="Слой_1" data-name="Слой 1" xmlns="http://www.w3.org/2000/svg" viewBox="0 0 14 14.17">
  <title>icon-playlist</title>
  <g id="_Группа_" data-name="&lt;Группа&gt;">
    <g id="_Группа_2" data-name="&lt;Группа&gt;">
      <path id="_Составной_контур_" data-name="&lt;Составной контур&gt;" d="M1680.84,1904.33l-14,0v2l14,0" transform="translate(-1666.84 -1896.19)" fill="#5b656c"/>
    </g>
    <g id="_Группа_3" data-name="&lt;Группа&gt;">
      <path id="_Составной_контур_2" data-name="&lt;Составной контур&gt;" d="M1680.84,1908.33l-14,0v2l14,0" transform="translate(-1666.84 -1896.19)" fill="#5b656c"/>
    </g>
    <polyline id="_Контур_" data-name="&lt;Контур&gt;" points="14 2.14 6 2.14 6 0.14 14 0.14" fill="#5b656c"/>
    <polyline id="_Контур_2" data-name="&lt;Контур&gt;" points="14 6.14 6 6.14 6 4.14 14 4.14" fill="#5b656c"/>
    <g id="_Группа_4" data-name="&lt;Группа&gt;">
      <g id="_7" data-name="7">
        <g id="_Группа_5" data-name="&lt;Группа&gt;">
          <path id="_Контур_3" data-name="&lt;Контур&gt;" d="M1670.64,1898.71l-3.56-2.46c-0.23-.12-0.23-0.11-0.23.33v4.84c0,0.4,0,.46.23,0.33l3.69-2.46A0.44,0.44,0,0,0,1670.64,1898.71Z" transform="translate(-1666.84 -1896.19)" fill="#5b656c"/>
        </g>
      </g>
    </g>
  </g>
</svg>
