<svg id="Слой_1" data-name="Слой 1" xmlns="http://www.w3.org/2000/svg" viewBox="0 0 22.05 21.04">
  <title>icon-referal</title>
  <g id="header_-_member_2" data-name="header - member 2">
    <g id="header-phone">
      <g>
        <path d="M886.06,515.08a0.73,0.73,0,0,0-.53.3,1.66,1.66,0,0,0,0,1.95,0.62,0.62,0,0,0,1.06,0,1.66,1.66,0,0,0,0-1.95A0.73,0.73,0,0,0,886.06,515.08Z" transform="translate(-872.33 -503.13)" fill="#8f9da2"/>
        <path d="M880.65,512.21a0.73,0.73,0,0,0,.53-0.3,1.66,1.66,0,0,0,0-1.95,0.62,0.62,0,0,0-1.06,0,1.66,1.66,0,0,0,0,1.95A0.73,0.73,0,0,0,880.65,512.21Z" transform="translate(-872.33 -503.13)" fill="#8f9da2"/>
        <path d="M894.09,513.08l-2.7-2,1-3.24a0.72,0.72,0,0,0-.67-0.93l-3.38-.06-1.1-3.2a0.72,0.72,0,0,0-1.09-.35l-2.77,1.94-2.77-1.94a0.72,0.72,0,0,0-1.09.35l-1.1,3.2-3.38.06a0.72,0.72,0,0,0-.67.93l1,3.24-2.7,2a0.72,0.72,0,0,0,0,1.15l2.7,2-1,3.24a0.72,0.72,0,0,0,.67.93l3.38,0.06,1.1,3.2a0.72,0.72,0,0,0,1.09.35l2.77-1.94,2.77,1.94a0.72,0.72,0,0,0,1.09-.35l1.1-3.2,3.38-.06a0.72,0.72,0,0,0,.67-0.93l-1-3.24,2.7-2A0.72,0.72,0,0,0,894.09,513.08Zm-13.44-4.4a2.32,2.32,0,1,1-1.84,2.27A2.09,2.09,0,0,1,880.65,508.67Zm-0.12,10a0.62,0.62,0,0,1-.5.26,0.62,0.62,0,0,1-.5-1l6.64-9.25a0.62,0.62,0,0,1,.5-0.26,0.62,0.62,0,0,1,.5,1Zm5.53,0a2.32,2.32,0,1,1,1.84-2.27A2.09,2.09,0,0,1,886.06,518.62Z" transform="translate(-872.33 -503.13)" fill="#8f9da2"/>
      </g>
    </g>
  </g>
</svg>
