<?xml version="1.0" encoding="iso-8859-1"?><!DOCTYPE svg PUBLIC "-//W3C//DTD SVG 1.1//EN" "http://www.w3.org/Graphics/SVG/1.1/DTD/svg11.dtd"><svg width="118" height="106" viewBox="0 0 118 106" xmlns="http://www.w3.org/2000/svg" xmlns:xlink="http://www.w3.org/1999/xlink"><view id="bulb" viewBox="32 0 30.238 30.238"/><svg viewBox="0 0 30.238 30.238" width="30.238" height="30.238" x="32"><circle cx="15.119" cy="15.119" r="15.119" fill="#222a32"/><path d="M19.016 20.964c0 .36-.29.65-.65.65h-6.493a.648.648 0 0 1 0-1.3h6.494c.358 0 .65.29.65.65zm-.65 1.3h-6.494a.648.648 0 0 0 0 1.297h6.494a.648.648 0 0 0 0-1.297zM13.82 25.51h2.598c.718 0 1.3-.58 1.3-1.3H12.52c0 .72.582 1.3 1.3 1.3zm7.794-14.287c0 3.53-2.128 3.942-2.528 7.793 0 .36-.29.65-.65.65h-6.633c-.36 0-.65-.29-.65-.65-.398-3.85-2.527-4.262-2.527-7.793 0-3.587 2.907-6.494 6.494-6.494s6.494 2.905 6.494 6.493z" fill="#7ac943"/></svg><view id="circle" viewBox="101.548 60 14.24 14.24"/><svg viewBox="0 0 14.24 14.24" width="14.24" height="14.24" x="101.548" y="60"><circle fill="#4CAF50;" cx="7.12" cy="7.12" r="7.12"/></svg><view id="cross" viewBox="0 93.38999999999999 12 12"/><svg viewBox="0 0 12 12" width="12" height="12" y="93.38999999999999"><path fill="#90a4ae" d="M0 5.638v.713l5.485.11.052 5.54h.713l.154-5.54L12 6.362V5.65l-5.596-.11L6.24 0h-.714l-.042 5.54z"/></svg><view id="icon-bell" viewBox="48.33 32 12.75 16.26"/><svg data-name="Слой 1" viewBox="0 0 12.75 16.26" width="12.75" height="16.26" x="48.33" y="32"><title>icon-bell</title><path data-name="&lt;Контур>" d="M12.76 11.9l-.83-1.14a1.84 1.84 0 0 1-.28-1.44V5.75a4.91 4.91 0 0 0-3.78-4.61s-.09-.08-.09-.12a1.06 1.06 0 0 0-1.07-1 1 1 0 0 0-1 1s-.2.08-.2.12A4.76 4.76 0 0 0 1.73 5.6v3.73a1.89 1.89 0 0 1-.4 1.44l-1 1.14a1 1 0 0 0-.25.72v-.08a1.06 1.06 0 0 0 1.13 1h3.86v.67c0 1.12.54 2 1.66 2s1.66-.91 1.66-2v-.67h3.75c.61 0 .6-.41.6-1v-.65z" fill="#5b656c"/></svg><view id="icon-bulb" viewBox="80.238 41.33 12.99 20.78"/><svg data-name="Слой 1" viewBox="0 0 12.99 20.78" width="12.99" height="20.78" x="80.238" y="41.33"><title>icon-bulb</title><path d="M10.38 16.24a.65.65 0 0 1-.65.65H3.24a.65.65 0 0 1 0-1.3h6.49a.65.65 0 0 1 .65.65zm-.65 1.3H3.24a.65.65 0 1 0 0 1.3h6.49a.65.65 0 0 0 .02-1.3zm-4.55 3.25h2.6a1.3 1.3 0 0 0 1.3-1.3h-5.2a1.3 1.3 0 0 0 1.32 1.3zm7.81-14.31c0 3.53-2.13 3.94-2.53 7.79a.65.65 0 0 1-.65.65H3.18a.65.65 0 0 1-.65-.65C2.13 10.42 0 10.01 0 6.48a6.495 6.495 0 0 1 12.99 0z"/></svg><view id="icon-check" viewBox="40.823 80.03999999999999 11.52 8.97"/><svg data-name="Слой 1" viewBox="0 0 11.52 8.97" width="11.52" height="8.97" x="40.823" y="80.03999999999999"><title>icon-check</title><path data-name="&lt;Контур>" d="M11.45 1.39L10.17.11a.39.39 0 0 0-.55 0L4.27 5.46 1.99 3.18a.39.39 0 0 0-.55 0L.16 4.46a.39.39 0 0 0 0 .55l3.83 3.83a.39.39 0 0 0 .55 0l6.91-6.86a.39.39 0 0 0 0-.59z" fill="#cfd8dc;"/></svg><view id="icon-close" viewBox="52.343 80.03999999999999 8.69 8.71"/><svg data-name="Слой 1" viewBox="0 0 8.69 8.71" width="8.69" height="8.71" x="52.343" y="80.03999999999999"><title>icon-close</title><path data-name="&lt;Контур>" d="M.5 0L0 .51l3.84 3.84L0 8.2l.5.51 3.84-3.85 3.85 3.85.5-.51-3.84-3.85L8.69.51 8.19 0 4.34 3.85.5 0z"/></svg><view id="icon-dictionary" viewBox="62.238 23.14 16.95 18.22"/><svg data-name="Слой 1" viewBox="0 0 16.95 18.22" width="16.95" height="18.22" x="62.238" y="23.14"><title>icon-dictionary</title><path d="M16.16 0h-2v4.94a.39.39 0 0 1-.29.38h-.1a.39.39 0 0 1-.34-.2l-1.12-2-1.12 2a.39.39 0 0 1-.73-.19V-.01H2.78a.79.79 0 0 0-.79.79v1.37h-.22a1.83 1.83 0 1 0 0 3.66h.22V12h-.22a1.83 1.83 0 1 0 0 3.66h.22v1.77a.79.79 0 0 0 .79.79h13.33a.79.79 0 0 0 .79-.79V.78a.79.79 0 0 0-.74-.78zM3.57 14.71H1.95a.85.85 0 0 1 0-1.69h1.62a.85.85 0 0 1 0 1.69zm0-9.84H1.95a.85.85 0 0 1 0-1.69h1.62a.85.85 0 0 1 0 1.69z" data-name="header - member 2"/></svg><view id="icon-dropdown" viewBox="101.548 88.41 8.05 4.45"/><svg data-name="Слой 1" viewBox="0 0 8.05 4.45" width="8.05" height="4.45" x="101.548" y="88.41"><title>icon-dropdown</title><path data-name="&lt;Контур>" fill="none;stroke: #5b656c;stroke-miterlimit: 10" d="M7.71.37l-3.69 3.4L.34.37"/></svg><view id="icon-filter" viewBox="61.94 59 16.25 16.16"/><svg data-name="Слой 1" viewBox="0 0 16.25 16.16" width="16.25" height="16.16" x="61.94" y="59"><title>icon-filter</title><path d="M16.19.43a.64.64 0 0 0-.68-.39H.72a.64.64 0 0 0-.68.39.69.69 0 0 0 .31.78L6.2 6.88v5.55a.63.63 0 0 0 .07.52l2.88 3a.61.61 0 0 0 .48.22.43.43 0 0 0 .2-.06.63.63 0 0 0 .36-.68v-8.6l5.76-5.67a.65.65 0 0 0 .24-.73z" fill="#b0bec5"/></svg><view id="icon-folder" viewBox="0 0 32 32"/><svg viewBox="0 0 508.52 508.52" width="32" height="32"><path d="M476.737 47.674H317.825c-17.544 0-31.782 14.24-31.782 31.782 0 0-4.132 29.145-31.782 31.782H31.783C14.24 111.238 0 124.968 0 142.513v286.55c0 17.545 14.24 31.784 31.782 31.784h444.955c17.544 0 31.782-14.24 31.782-31.783V79.456c0-17.544-14.24-31.782-31.783-31.782z" fill="#090509"/></svg><view id="icon-history" viewBox="80.238 62.11 18.77 17.83"/><svg data-name="Слой 1" viewBox="0 0 18.77 17.83" width="18.77" height="17.83" x="80.238" y="62.11"><title>icon-history</title><path d="M9.89 0A8.76 8.76 0 0 0 2.2 4.5L.04 2.34v6.1h6.1L3.51 5.81a7.08 7.08 0 1 1-.28 5.44h-2A8.93 8.93 0 1 0 9.89 0zM8.48 4.69v4.79l4.41 2.63.75-1.22-3.75-2.25V4.72H8.48z" fill="#5b656c;opacity: 0.899999976158142;isolation: isolate" data-name="header - member 2"/></svg><view id="icon-histroy" viewBox="62.238 41.36 17.05 17.05"/><svg data-name="Слой 1" viewBox="0 0 17.05 17.05" width="17.05" height="17.05" x="62.238" y="41.36"><title>icon-histroy</title><g data-name="&lt;Группа>" fill="#5b656c"><path data-name="&lt;Составной контур>" d="M8.56 0a8.53 8.53 0 1 0 8.53 8.53A8.54 8.54 0 0 0 8.56 0zm0 15.24a6.71 6.71 0 1 1 6.71-6.71 6.72 6.72 0 0 1-6.71 6.71z"/><path data-name="&lt;Контур>" d="M12.97 8.12H9.45V3.65a.62.62 0 1 0-1.22 0v5.31c0 .39-.18.38.21.38h4.53a.62.62 0 1 0 0-1.22z"/></g></svg><view id="icon-lock" viewBox="0 32 22.09 27"/><svg data-name="Слой 1" viewBox="0 0 22.09 27" width="22.09" height="27" y="32"><title>icon-lock</title><path d="M21.55 12.81a1.78 1.78 0 0 0-1.3-.54h-.61V8.59a8.59 8.59 0 0 0-17.18 0v3.68h-.61a1.83 1.83 0 0 0-1.84 1.84v11a1.83 1.83 0 0 0 1.84 1.84h18.41a1.83 1.83 0 0 0 1.84-1.84v-11a1.77 1.77 0 0 0-.55-1.3zm-5.6-.54H6.13V8.59a4.91 4.91 0 0 1 9.82 0v3.68z" fill="#919fa4"/></svg><view id="icon-logout" viewBox="22.09 32 26.24 21.34"/><svg data-name="Слой 1" viewBox="0 0 26.24 21.34" width="26.24" height="21.34" x="22.09" y="32"><title>icon-logout</title><g data-name="header - member 2"><path d="M11.71 12.79a.59.59 0 0 1-.58-.58V9.14a.59.59 0 0 1 .58-.58h5.62V2.47A2.4 2.4 0 0 0 14.91.05H2.42A2.4 2.4 0 0 0 0 2.47v16.49a2.4 2.4 0 0 0 2.42 2.42h12.49a2.4 2.4 0 0 0 2.42-2.42v-6.13h-5.62z" fill="#8f9da2"/><path d="M26.05 10.29l-6.24-4.35c-.24-.21-.44-.12-.44.2v1.82a.59.59 0 0 1-.58.58h-.88a.59.59 0 0 0-.58.58v3.07a.59.59 0 0 0 .58.58h.87a.59.59 0 0 1 .58.58v1.82c0 .32.2.41.44.21l6.24-4.35a.48.48 0 0 0 .01-.74z" fill="#8f9da2" data-name="Layer 5"/></g></svg><view id="icon-movie" viewBox="101.548 15.94 15 15"/><svg data-name="Слой 1" viewBox="0 0 15 15" width="15" height="15" x="101.548" y="15.94"><title>icon-movie</title><path d="M.53 15h13.94a.52.52 0 0 0 .53-.53V.53a.52.52 0 0 0-.53-.53H.53A.52.52 0 0 0 0 .53v13.94a.53.53 0 0 0 .53.53zM12.21 1.06h1.76v2.43h-1.76V1.06zm0 3.49h1.76v2.43h-1.76V4.55zm0 3.49h1.77v2.43h-1.77V8.04zm0 3.49h1.76v2.43h-1.76v-2.43zM3.9 1.06h7.25v5.92H3.9V1.06zm0 7h7.25v5.92H3.9V8.06zm-2.82-7h1.76v2.43H1.08V1.06zm0 3.49h1.76v2.43H1.08V4.55zm0 3.49h1.76v2.43H1.08V8.04zm0 3.49h1.76v2.43H1.08v-2.43z" fill="#37474f" data-name="header - member 2"/></svg><view id="icon-play" viewBox="12 93.38999999999999 8.41 10.63"/><svg data-name="Слой 1" viewBox="0 0 8.41 10.63" width="8.41" height="10.63" x="12" y="93.38999999999999"><title>icon-play</title><path data-name="&lt;Контур>" d="M0 .87v8.92a.73.73 0 0 0 1.13.72l6.91-4.46a.86.86 0 0 0 0-1.44L1.2.15A.74.74 0 0 0 0 .87z" fill="#919fa4"/></svg><view id="icon-playlist" viewBox="101.548 74.24 14 14.17"/><svg data-name="Слой 1" viewBox="0 0 14 14.17" width="14" height="14.17" x="101.548" y="74.24"><title>icon-playlist</title><g data-name="&lt;Группа>"><path data-name="&lt;Составной контур>" d="M14 8.14H0v2h14M14 12.14H0v2h14" fill="#5b656c"/><path data-name="&lt;Контур>" fill="#5b656c" d="M14 2.14H6v-2h8M14 6.14H6v-2h8M3.8 2.52L.24.06C.01-.06.01-.05.01.39v4.84c0 .4 0 .46.23.33L3.93 3.1a.44.44 0 0 0-.13-.58z"/></g></svg><view id="icon-question" viewBox="101.548 45.73 14.27 14.27"/><svg data-name="Слой 1" viewBox="0 0 14.27 14.27" width="14.27" height="14.27" x="101.548" y="45.73"><title>icon-question</title><path d="M13.8.47A1.57 1.57 0 0 0 12.65 0H1.67A1.61 1.61 0 0 0 .05 1.62v11a1.61 1.61 0 0 0 1.62 1.61h11a1.61 1.61 0 0 0 1.62-1.62v-11A1.57 1.57 0 0 0 13.8.47zM7.98 12.73a1.16 1.16 0 1 1 .34-.82 1.12 1.12 0 0 1-.34.82zm2.34-7.14A6.47 6.47 0 0 1 9.06 7a6 6 0 0 0-.76.76 1.26 1.26 0 0 0-.23.5 4.66 4.66 0 0 0-.1 1 .84.84 0 0 1-.29.65.75.75 0 0 1-.58.18 1 1 0 0 1-.57-.24.8.8 0 0 1-.24-.58v-.39a3.7 3.7 0 0 1 .23-1.35 3.11 3.11 0 0 1 .52-.88 9.59 9.59 0 0 1 .92-.89 3.53 3.53 0 0 0 .78-.84 1.19 1.19 0 0 0 .16-.62 1.49 1.49 0 0 0-.49-1.09 1.66 1.66 0 0 0-1.22-.48 1.59 1.59 0 0 0-1.15.44 2.42 2.42 0 0 0-.63 1.41 1 1 0 0 1-.35.66.89.89 0 0 1-.67.22.74.74 0 0 1-.6-.31 1 1 0 0 1-.13-.81 3.27 3.27 0 0 1 3.52-3.1 3.64 3.64 0 0 1 2.53.86 2.77 2.77 0 0 1 1 2.12 2.74 2.74 0 0 1-.4 1.37z" data-name="header - member 2"/></svg><view id="icon-referal" viewBox="0 59 22.05 21.04"/><svg data-name="Слой 1" viewBox="0 0 22.05 21.04" width="22.05" height="21.04" y="59"><title>icon-referal</title><g fill="#8f9da2" data-name="header - member 2"><path d="M13.73 11.95a.73.73 0 0 0-.53.3 1.66 1.66 0 0 0 0 1.95.62.62 0 0 0 1.06 0 1.66 1.66 0 0 0 0-1.95.73.73 0 0 0-.53-.3zM8.32 9.08a.73.73 0 0 0 .53-.3 1.66 1.66 0 0 0 0-1.95.62.62 0 0 0-1.06 0 1.66 1.66 0 0 0 0 1.95.73.73 0 0 0 .53.3z"/><path d="M21.76 9.95l-2.7-2 1-3.24a.72.72 0 0 0-.67-.93l-3.38-.06-1.1-3.2a.72.72 0 0 0-1.09-.35l-2.77 1.94L8.28.17a.72.72 0 0 0-1.09.35l-1.1 3.2-3.38.06a.72.72 0 0 0-.67.93l1 3.24-2.7 2a.72.72 0 0 0 0 1.15l2.7 2-1 3.24a.72.72 0 0 0 .67.93l3.38.06 1.1 3.2a.72.72 0 0 0 1.09.35l2.77-1.94 2.77 1.94a.72.72 0 0 0 1.09-.35l1.1-3.2 3.38-.06a.72.72 0 0 0 .67-.93l-1-3.24 2.7-2a.72.72 0 0 0 0-1.15zM8.32 5.55a2.32 2.32 0 1 1-1.84 2.27 2.09 2.09 0 0 1 1.84-2.28zm-.12 10a.62.62 0 0 1-.5.26.62.62 0 0 1-.5-1l6.64-9.25a.62.62 0 0 1 .5-.26.62.62 0 0 1 .5 1zm5.53 0a2.32 2.32 0 1 1 1.84-2.27 2.09 2.09 0 0 1-1.84 2.21z"/></g></svg><view id="icon-sad" viewBox="101.548 30.939999999999998 14.79 14.79"/><svg data-name="Слой 1" viewBox="0 0 14.79 14.79" width="14.79" height="14.79" x="101.548" y="30.939999999999998"><title>icon-sad</title><path d="M7.39 0a7.4 7.4 0 1 0 7.4 7.4A7.4 7.4 0 0 0 7.39 0zm2.73 4.93a1.06 1.06 0 1 1-1.06 1.06 1.06 1.06 0 0 1 1.06-1.07zm-5.46 0A1.06 1.06 0 1 1 3.6 5.99a1.06 1.06 0 0 1 1.06-1.07zm6.76 6.06a.58.58 0 0 1-.57.26H3.93a.58.58 0 0 1-.57-.26.57.57 0 0 1 0-.63 4.88 4.88 0 0 1 8 0 .59.59 0 0 1 .07.63z" fill="#5b656c"/></svg><view id="icon-search" viewBox="16 80.03999999999999 12.74 12.74"/><svg data-name="Слой 1" viewBox="0 0 12.74 12.74" width="12.74" height="12.74" x="16" y="80.03999999999999"><title>icon-search</title><path d="M12.4 10.92L9.63 8.15a5.24 5.24 0 1 0-1.5 1.5l2.77 2.77a1.06 1.06 0 0 0 1.5-1.5zM5.21 8.66a3.42 3.42 0 1 1 3.42-3.42 3.42 3.42 0 0 1-3.39 3.42z" fill="#56656c" data-name="header - member 2"/></svg><view id="icon-settings" viewBox="80.238 0 21.31 21.31"/><svg data-name="Слой 1" viewBox="0 0 21.31 21.31" width="21.31" height="21.31" x="80.238"><title>icon-settings</title><path d="M21.24 9.47a.69.69 0 0 0-.68-.52 2.35 2.35 0 0 1-1.61-4.09.59.59 0 0 0 .06-.8 10.54 10.54 0 0 0-1.69-1.7.59.59 0 0 0-.81.07 2.46 2.46 0 0 1-2.66.6A2.37 2.37 0 0 1 12.41.72a.59.59 0 0 0-.52-.62 10.64 10.64 0 0 0-2.4 0 .59.59 0 0 0-.53.61A2.37 2.37 0 0 1 7.5 2.98a2.46 2.46 0 0 1-2.64-.6.59.59 0 0 0-.8-.07 10.58 10.58 0 0 0-1.72 1.7.59.59 0 0 0 .06.81A2.36 2.36 0 0 1 3 7.48 2.46 2.46 0 0 1 .68 8.92a.58.58 0 0 0-.62.52 10.67 10.67 0 0 0 0 2.42.7.7 0 0 0 .7.52 2.34 2.34 0 0 1 2.19 1.46 2.37 2.37 0 0 1-.6 2.63.59.59 0 0 0-.06.8 10.58 10.58 0 0 0 1.69 1.71.59.59 0 0 0 .81-.06 2.45 2.45 0 0 1 2.66-.6 2.36 2.36 0 0 1 1.44 2.31.59.59 0 0 0 .52.62 10.6 10.6 0 0 0 2.4 0 .59.59 0 0 0 .53-.61 2.37 2.37 0 0 1 1.46-2.27 2.46 2.46 0 0 1 2.64.6.6.6 0 0 0 .8.07 10.61 10.61 0 0 0 1.72-1.7.59.59 0 0 0-.06-.81 2.36 2.36 0 0 1-.6-2.66 2.39 2.39 0 0 1 2.18-1.44h.13a.59.59 0 0 0 .62-.52 10.66 10.66 0 0 0 .01-2.44zm-10.57 4.76a3.55 3.55 0 1 1 3.55-3.55 3.56 3.56 0 0 1-3.55 3.55z" fill="#8f9da2" data-name="header - member 2"/></svg><view id="icon-sort" viewBox="93.228 41.33 8 13.63"/><svg data-name="Слой 1" viewBox="0 0 8 13.63" width="8" height="13.63" x="93.228" y="41.33"><title>icon-sort</title><g data-name="&lt;Группа>" fill="#c3d1d5"><circle data-name="&lt;Контур>" cx="1.19" cy="1.19" r="1.19"/><circle data-name="&lt;Контур>" cx="1.19" cy="6.81" r="1.19"/><circle data-name="&lt;Контур>" cx="1.19" cy="12.44" r="1.19"/><circle data-name="&lt;Контур>" cx="6.81" cy="1.19" r="1.19"/><circle data-name="&lt;Контур>" cx="6.81" cy="6.81" r="1.19"/><circle data-name="&lt;Контур>" cx="6.81" cy="12.44" r="1.19"/></g></svg><view id="icon-star" viewBox="80.238 21.31 20.97 20.02"/><svg data-name="Слой 1" viewBox="0 0 20.97 20.02" width="20.97" height="20.02" x="80.238" y="21.31"><title>icon-star</title><path d="M9.76.45a.81.81 0 0 1 1.46 0l2.61 5.29a.81.81 0 0 0 .61.44l5.84.85a.81.81 0 0 1 .45 1.38l-4.22 4.12a.81.81 0 0 0-.23.72l1 5.82a.81.81 0 0 1-1.18.86l-5.22-2.75a.81.81 0 0 0-.76 0L4.9 19.93a.81.81 0 0 1-1.18-.86l1-5.82a.81.81 0 0 0-.23-.72L.27 8.41a.81.81 0 0 1 .45-1.38l5.84-.85a.81.81 0 0 0 .61-.44z" fill="#5b656c" data-name="header - member 2"/></svg><view id="icon-trashbin" viewBox="62.238 0 18 23.14"/><svg data-name="Слой 1" viewBox="0 0 18 23.14" width="18" height="23.14" x="62.238"><title>icon-trashbin</title><g data-name="header - member 2"><path d="M1.28 20.57a2.58 2.58 0 0 0 2.57 2.57h10.29a2.58 2.58 0 0 0 2.57-2.57V5.14H1.28v15.43zM18 1.27h-4.5L12.21-.02H5.82L4.53 1.27H.03v2.57h18V1.27z" fill="#919fa4"/><path data-name="&lt;Контур>" fill="#fff" d="M5.16 9.32l-.5.5 3.84 3.85-3.84 3.85.5.5L9 14.17l3.84 3.85.5-.5-3.84-3.85 3.84-3.85-.5-.5L9 13.16 5.16 9.32z"/></g></svg><view id="icon-tvshow" viewBox="0 80.03999999999999 16 13.35"/><svg data-name="Слой 1" viewBox="0 0 16 13.35" width="16" height="13.35" y="80.03999999999999"><title>icon-tvshow</title><path d="M15.13.03H.86A.94.94 0 0 0 0 .87v9.38a.92.92 0 0 0 .13.47.87.87 0 0 0 .81.48h5.15v1.3h-1a.43.43 0 0 0 0 .86h5.77a.43.43 0 1 0 0-.86h-1v-1.3h5.15a.87.87 0 0 0 .81-.48 1 1 0 0 0 .13-.47V.87a1 1 0 0 0-.82-.84zm0 .92v9.3a.07.07 0 0 1-.08.08H.97a.07.07 0 0 1-.08-.08V.87h14.27v.08z" fill="#37474f" data-name="header - member 2"/></svg><view id="icon-zoom" viewBox="101.548 0 15.94 15.94"/><svg data-name="Слой 1" viewBox="0 0 15.94 15.94" width="15.94" height="15.94" x="101.548"><title>icon-zoom</title><path d="M15.55 13.66l-3.46-3.46h-.06a6.55 6.55 0 1 0-1.87 1.87v.06l3.46 3.46a1.365 1.365 0 0 0 1.93-1.93zm-9-2.83a4.28 4.28 0 1 1 4.28-4.28 4.28 4.28 0 0 1-4.28 4.28z" fill="#56656c" data-name="header - member 2"/></svg><view id="list" viewBox="28.740000000000002 80.03999999999999 12.083 11.833"/><svg viewBox="0 0 12.083 11.833" width="12.083" height="11.833" x="28.740000000000002" y="80.03999999999999"><path d="M0 11.73h8.962V9.775H0v1.955zm0-4.887h11.962V4.888H0v1.955zM0 0v1.955h11.962V0H0z" fill="#292f36"/></svg><view id="menu-arrow" viewBox="93.228 54.96 8.101 5.059"/><svg viewBox="0 0 8.101 5.059" width="8.101" height="5.059" x="93.228" y="54.96"><path fill="none" stroke="#90a4ae" stroke-miterlimit="10" d="M7.734.34L4.05 4.32.368.34"/></svg><view id="view-list" viewBox="42.05 59 19.89 19.74"/><svg data-name="Слой 1" viewBox="0 0 19.89 19.74" width="19.89" height="19.74" x="42.05" y="59"><title>view-list</title><g fill="#eceff0"><path d="M19.27 0H.62A.62.62 0 0 0 0 .62v3.34a.62.62 0 0 0 .62.62h18.65a.62.62 0 0 0 .62-.62V.62a.62.62 0 0 0-.62-.62zM19.27 7.47H.62a.62.62 0 0 0-.62.62v3.38a.62.62 0 0 0 .62.62h18.65a.62.62 0 0 0 .62-.62V8.13a.62.62 0 0 0-.62-.66zM19.27 15.16H.62a.62.62 0 0 0-.62.62v3.34a.62.62 0 0 0 .62.62h18.65a.62.62 0 0 0 .62-.62v-3.34a.62.62 0 0 0-.62-.62z"/></g></svg><view id="view-table" viewBox="22.05 59 20 19.74"/><svg data-name="Слой 1" viewBox="0 0 20 19.74" width="20" height="19.74" x="22.05" y="59"><title>view-table</title><g fill="#383b3f"><path d="M3.96 0H.62A.62.62 0 0 0 0 .62v3.34a.62.62 0 0 0 .62.62h3.34a.62.62 0 0 0 .62-.62V.62A.62.62 0 0 0 3.96 0zM11.61 0H8.22a.62.62 0 0 0-.62.62v3.34a.62.62 0 0 0 .62.62h3.34a.62.62 0 0 0 .62-.62V.62a.62.62 0 0 0-.57-.62zM19.38 0h-3.34a.62.62 0 0 0-.62.62v3.34a.62.62 0 0 0 .62.62h3.34a.62.62 0 0 0 .62-.62V.62a.62.62 0 0 0-.62-.62zM3.96 7.47H.62a.62.62 0 0 0-.62.62v3.38a.62.62 0 0 0 .62.62h3.34a.62.62 0 0 0 .62-.62V8.13a.62.62 0 0 0-.62-.66zM11.61 7.47H8.22a.62.62 0 0 0-.62.62v3.38a.62.62 0 0 0 .62.62h3.34a.62.62 0 0 0 .62-.62V8.13a.62.62 0 0 0-.57-.66zM19.38 7.47h-3.34a.62.62 0 0 0-.62.62v3.38a.62.62 0 0 0 .62.62h3.34a.62.62 0 0 0 .62-.62V8.13a.62.62 0 0 0-.62-.66zM3.96 15.16H.62a.62.62 0 0 0-.62.62v3.34a.62.62 0 0 0 .62.62h3.34a.62.62 0 0 0 .62-.62v-3.34a.62.62 0 0 0-.62-.62zM11.61 15.16H8.22a.62.62 0 0 0-.62.62v3.34a.62.62 0 0 0 .62.62h3.34a.62.62 0 0 0 .62-.62v-3.34a.62.62 0 0 0-.57-.62zM19.38 15.16h-3.34a.62.62 0 0 0-.62.62v3.34a.62.62 0 0 0 .62.62h3.34a.62.62 0 0 0 .62-.62v-3.34a.62.62 0 0 0-.62-.62z"/></g></svg></svg>